<svg xmlns="http://www.w3.org/2000/svg" viewBox="0 0 130 100"><defs><style>.cls-1{fill:#969291;}.cls-2{fill:snow;}</style></defs><g id="Layer_30" data-name="Layer 30"><path class="cls-1" d="M.06,52.37c.22,23.93.45,36,6.38,42,7.42,7.43,16.71,5.87,45.64,4.55,56.44-2.59,69.24,1.93,76.07-8.6,4-6.1.57-9-1-42.47-1.47-31.74,1.32-34.6-3-40.46-3.52-4.83-10-9.19-73.12-6.57-32.59,1.35-40,3-45.64,9.61S-.15,28.89.06,52.37Z"/><path class="cls-2" d="M31.68,46.94c-.14-4-.17-6.49,0-9.56.21-4.56.33-6.86,1.07-7.71.88-1,3.36-2.65,21.66,3.54,4.72,1.59,4.09,1.55,13.95,5.1C82,43.22,84.28,44,84.28,44c12.37,4.34,14.31,4.78,14.42,6.15.26,3-8.25,5.94-22,10.79-5.59,2-11,3.47-22,6.47C40.8,71.27,36,72.22,33.77,69.6c-.48-.57-.6-1-1.05-6.47C32.16,56.36,31.88,52.85,31.68,46.94Z"/></g></svg>